<?xml version="1.0" encoding="UTF-8"?>
<svg id="Capa_2" data-name="Capa 2" xmlns="http://www.w3.org/2000/svg" viewBox="0 0 901.55 900.1">
  <defs>
    <style>
      .cls-1 {
        fill: #fff;
        stroke-width: 0px;
      }
    </style>
  </defs>
  <g id="Capa_1-2" data-name="Capa 1">
    <g>
      <path class="cls-1" d="M535.96,0c121.86,0,243.73,0,365.59,0-.14,1.66-.39,3.32-.39,4.98-.03,22.9-.09,45.79.06,68.69.02,3.39-1.05,5.69-3.41,8.05-194.5,194.55-388.93,389.16-583.38,583.75-77.12,77.18-154.27,154.35-231.4,231.53-.98.98-1.86,2.07-2.79,3.11H.21c-.05-1.54-.14-3.09-.14-4.63C.07,777.5.08,659.52,0,541.55c0-3.37.97-5.69,3.35-8.06C179.89,356.97,356.37,180.39,532.84,3.8c1.15-1.15,2.08-2.53,3.12-3.8Z"/>
      <path class="cls-1" d="M673.27,900.1c-1.02-1.13-2-2.31-3.08-3.39-69.26-69.32-138.53-138.63-207.83-207.91-1.18-1.18-2.72-1.98-3.77-2.73,75.26-75.3,149.74-149.82,224.43-224.54.73.68,1.85,1.69,2.92,2.75,70.67,70.69,141.32,141.4,212.03,212.04,2.26,2.26,3.24,4.49,3.23,7.7-.08,70.35-.06,140.7-.08,211.06,0,1.67-.27,3.34-.41,5.01h-227.44Z"/>
      <path class="cls-1" d="M319.47,0c-.14,3.07-.39,6.13-.4,9.2-.04,16.29.08,32.58-.14,48.86-.03,2.22-1.05,5.01-2.59,6.56-83.66,83.89-167.42,167.67-251.22,251.41-1.24,1.24-3.25,2.42-4.92,2.44-18.94.17-37.89.11-56.83.09-.54,0-1.08-.13-2.18-.27,0-1.8,0-3.58,0-5.35,0-103.06,0-206.11,0-309.17C1.19,2.52,1.1,1.26,1.05,0,107.19,0,213.33,0,319.47,0Z"/>
    </g>
  </g>
</svg>